<?xml version="1.0" encoding="UTF-8"?>
<svg id="Layer_2" data-name="Layer 2" xmlns="http://www.w3.org/2000/svg" viewBox="0 0 576.31 143.13">
  <defs>
    <style>
      .cls-1 {
        fill: #fff;
      }
    </style>
  </defs>
  <g id="_1080_x_1080_px_Logo_1" data-name="1080 x 1080 px Logo 1">
    <g id="Background">
      <g>
        <path class="cls-1" d="M99.38.83v24.06l-7.8-.78c-12.91-.39-25.42,2.92-35.82,10.55-7.93,5.82-13.85,14.75-14.52,24.78h58.14v24.31h-57.89c.75,8.87,1.2,18.21-1.47,26.81-5.49,17.67-23.59,27.13-40.02,32.56v-26.23c1.8-1.16,3.8-1.94,5.61-3.09,10.42-6.66,12.63-18.41,12.32-30.05H.38l-.38-.38v-23.93h17.67c.38-3.17.55-6.37,1.1-9.52C22.78,27.05,39.79,9.78,61.79,3.32,73.85-.22,86.93-.72,99.38.83Z"/>
        <polygon class="cls-1" points="253.45 64.04 266.89 119.32 279.72 64.45 280.58 64.03 299.68 64.17 312.87 119.33 326.19 64.04 343.22 64.04 325.52 140.79 298.69 140.79 289.18 100.13 279.42 140.8 252.93 140.84 234.88 64.04 253.45 64.04"/>
        <polygon class="cls-1" points="362.69 33.33 384.08 108.32 405.46 33.33 424.42 33.33 394.07 140.57 393.31 140.84 374.21 140.71 343.74 33.33 362.69 33.33"/>
        <path class="cls-1" d="M427.84,131.01c-14.79-14.92-14.65-43.62.68-58.14,13.46-12.75,39.18-13.7,54.13-3.15,20.67,14.59,20.8,50.17.26,64.91-15.21,10.91-41.66,9.89-55.06-3.63ZM454.08,79.48c-26.37,2.67-25.69,47.62,5.31,45.75,25.48-1.54,27.4-39.57,4.27-45.23-2.86-.7-6.65-.81-9.58-.51Z"/>
        <path class="cls-1" d="M189.49,62.58c25.38-.53,42.66,15.63,41.81,41.26s-19.93,39.64-45.21,38c-48.22-3.12-49.01-78.17,3.4-79.26ZM187.18,79.48c-26.06,2.66-25.83,47.65,5.57,45.75,16.17-.98,23.97-17.48,18.82-31.88-3.8-10.62-13.53-14.98-24.39-13.87Z"/>
        <polygon class="cls-1" points="570.93 64.04 545.61 99.7 576.31 140.82 553.64 140.82 533.66 114.47 514.71 140.82 494.34 140.82 522.99 100.3 496.14 64.04 518.8 64.04 534.94 85.54 550.57 64.04 570.93 64.04"/>
        <polygon class="cls-1" points="143.69 140.82 125.51 140.82 125.51 25.66 143.31 25.66 143.69 26.04 143.69 140.82"/>
        <rect class="cls-1" x="75.82" y="116" width="23.56" height="25.59"/>
      </g>
    </g>
  </g>
</svg>